<svg width="66" height="51" viewBox="0 0 66 51" fill="none" xmlns="http://www.w3.org/2000/svg">
<path d="M53.9101 2.91475C52.0407 1.2103 49.5527 0.187744 46.9141 0.0395238C44.2758 -0.108696 41.6689 0.627639 39.5843 2.10996C37.6807 0.761155 35.3387 0.0287736 32.928 0.0283476C30.5173 0.0279216 28.1752 0.759477 26.271 2.1076C24.0992 0.553492 21.359 -0.186066 18.6096 0.039912C15.8603 0.265889 13.3092 1.44036 11.4772 3.32355C9.64512 5.20675 8.67031 7.65664 8.75173 10.1731C8.83315 12.6895 9.96466 15.0828 11.9153 16.8641L18.5768 22.9403C18.582 22.9448 18.5871 22.9493 18.593 22.954C18.5988 22.9587 18.6004 22.9609 18.6041 22.9643C18.611 22.9706 18.6184 22.9763 18.6254 22.9826C18.7312 23.0782 18.8387 23.1713 18.9478 23.262C19.0039 23.3089 19.0607 23.3544 19.1178 23.4001C19.1641 23.4369 19.2107 23.4733 19.2574 23.5094C21.1564 24.9768 23.5512 25.8036 26.0396 25.8507C28.5281 25.8979 30.9585 25.1626 32.9227 23.7683C35.0073 25.2506 37.6142 25.987 40.2526 25.8387C42.8911 25.6905 45.3792 24.668 47.2486 22.9635L53.9103 16.8883C55.9391 15.0338 57.0785 12.5211 57.0785 9.90147C57.0785 7.28183 55.939 4.76918 53.9101 2.91475ZM32.9259 2.60183C34.5098 2.6009 36.0583 3.02853 37.3754 3.83058C38.6928 4.63262 39.7194 5.77302 40.3256 7.10744C40.9319 8.44187 41.0904 9.91034 40.7811 11.3269C40.4719 12.7436 39.7087 14.0447 38.5883 15.0656L32.9259 20.2295L27.2634 15.0656C26.1429 14.0447 25.3798 12.7436 25.0705 11.3269C24.7613 9.91028 24.9198 8.44181 25.526 7.10739C26.1323 5.77294 27.1591 4.63254 28.4762 3.83052C29.7935 3.02849 31.3421 2.60087 32.9259 2.60183ZM18.2561 15.977C18.2532 15.0175 18.4591 14.0671 18.8617 13.1807C19.2643 12.2943 19.8557 11.4895 20.6017 10.813L22.1088 9.43852C22.0358 10.8124 22.2789 12.1849 22.8224 13.4679C23.366 14.7509 24.198 15.916 25.2648 16.8883L30.8114 21.9467C29.615 22.7109 28.2116 23.161 26.754 23.2478C25.2966 23.3345 23.8408 23.0548 22.5456 22.439C21.2505 21.823 20.1655 20.8949 19.4091 19.7552C18.6526 18.6158 18.2537 17.3087 18.2558 15.9766L18.2561 15.977ZM13.9135 15.0413C12.4961 13.749 11.6617 12.0189 11.5751 10.1928C11.4885 8.36669 12.156 6.57734 13.4457 5.17825C14.7354 3.77915 16.5536 2.87205 18.541 2.63611C20.5285 2.40017 22.5407 2.85258 24.1802 3.90394L18.6031 8.99017C17.5939 9.90556 16.7938 10.9944 16.2491 12.1937C15.7045 13.393 15.426 14.6789 15.4299 15.977C15.4299 16.1302 15.4339 16.2829 15.4417 16.435L13.9135 15.0413ZM39.588 23.2798C37.9519 23.2834 36.3545 22.8263 35.0138 21.9711L40.5876 16.8883C41.6546 15.916 42.4864 14.7509 43.0299 13.4679C43.5734 12.1849 43.8166 10.8124 43.7437 9.43852L45.2508 10.813C46.3708 11.8344 47.1333 13.1357 47.4422 14.5523C47.7513 15.9689 47.5926 17.4373 46.9864 18.7718C46.3803 20.1062 45.3538 21.2467 44.037 22.0492C42.72 22.8516 41.1718 23.2798 39.588 23.2798ZM51.9119 15.0656L50.4103 16.435C50.4179 16.283 50.4217 16.1304 50.422 15.977C50.4259 14.6789 50.1475 13.393 49.6028 12.1937C49.0581 10.9944 48.2579 9.90556 47.2487 8.99017L41.6755 3.90732C43.3179 2.86502 45.3287 2.42126 47.3119 2.6634C49.2952 2.90553 51.1072 3.81603 52.3911 5.21562C53.675 6.6152 54.3379 8.40245 54.2492 10.2255C54.1605 12.0485 53.3268 13.7752 51.9119 15.0656Z" fill="#025595"/>
<path d="M7.67779 34.143C5.78136 34.143 4.36364 34.544 3.42463 35.3462C2.50403 36.1313 2.04373 37.2748 2.04373 38.7768V41.2857H11.2681V42.9242H2.04373V50.5278H0V38.7512C0 36.7884 0.662831 35.2523 1.98849 34.143C3.31416 33.0165 5.18297 32.4533 7.59494 32.4533C9.93326 32.4533 11.8113 32.9226 13.229 33.8613L12.4833 35.423C11.2313 34.5696 9.62946 34.143 7.67779 34.143Z" fill="#222222"/>
<path d="M20.4528 50.6558C19.1456 50.6558 18.1329 50.3144 17.4149 49.6317C16.7152 48.949 16.3654 48.0018 16.3654 46.79V31.5316H18.3262V46.6364C18.3262 47.4385 18.5288 48.053 18.9338 48.4797C19.3389 48.8893 19.9465 49.0941 20.7566 49.0941C21.2722 49.0941 21.7141 49.0173 22.0823 48.8637L22.2204 50.3742C21.6496 50.5619 21.0604 50.6558 20.4528 50.6558Z" fill="#222222"/>
<path d="M30.5563 50.6558C29.1569 50.6558 27.8957 50.3656 26.7726 49.7853C25.6495 49.188 24.7657 48.3687 24.1213 47.3276C23.4769 46.2865 23.1546 45.1088 23.1546 43.7946C23.1546 42.4804 23.4769 41.3028 24.1213 40.2617C24.7657 39.2205 25.6495 38.4098 26.7726 37.8295C27.8957 37.2492 29.1569 36.9591 30.5563 36.9591C31.9556 36.9591 33.2168 37.2492 34.3399 37.8295C35.4631 38.4098 36.3376 39.2205 36.9636 40.2617C37.608 41.3028 37.9303 42.4804 37.9303 43.7946C37.9303 45.1088 37.608 46.2865 36.9636 47.3276C36.3376 48.3687 35.4631 49.188 34.3399 49.7853C33.2168 50.3656 31.9556 50.6558 30.5563 50.6558ZM30.5563 49.0429C31.5873 49.0429 32.5079 48.8295 33.3181 48.4029C34.1466 47.9591 34.791 47.3361 35.2513 46.534C35.7116 45.7318 35.9418 44.8187 35.9418 43.7946C35.9418 42.7706 35.7116 41.8575 35.2513 41.0553C34.791 40.2531 34.1466 39.6387 33.3181 39.212C32.5079 38.7683 31.5873 38.5464 30.5563 38.5464C29.5252 38.5464 28.5954 38.7683 27.7668 39.212C26.9567 39.6387 26.3123 40.2531 25.8336 41.0553C25.3733 41.8575 25.1431 42.7706 25.1431 43.7946C25.1431 44.8187 25.3733 45.7318 25.8336 46.534C26.3123 47.3361 26.9567 47.9591 27.7668 48.4029C28.5954 48.8295 29.5252 49.0429 30.5563 49.0429Z" fill="#222222"/>
<path d="M43.8116 39.6984C44.2719 38.7939 44.9531 38.1112 45.8553 37.6503C46.7759 37.1895 47.9083 36.9591 49.2523 36.9591V38.7256L48.7828 38.7C47.2546 38.7 46.0578 39.1352 45.1925 40.0056C44.3271 40.8761 43.8944 42.0964 43.8944 43.6666V50.5278H41.9336V37.0615H43.8116V39.6984Z" fill="#222222"/>
<path d="M65.9245 37.0615V50.5278H64.0465V47.8652C63.4573 48.7698 62.6748 49.461 61.699 49.9389C60.7415 50.4168 59.6552 50.6558 58.44 50.6558C57.0776 50.6558 55.844 50.3656 54.7392 49.7853C53.6345 49.205 52.7692 48.3943 52.1432 47.3532C51.5171 46.3121 51.2041 45.1259 51.2041 43.7946C51.2041 42.4634 51.5171 41.2772 52.1432 40.2361C52.7692 39.1949 53.6345 38.3928 54.7392 37.8295C55.844 37.2492 57.0776 36.9591 58.44 36.9591C59.6184 36.9591 60.6771 37.1895 61.6161 37.6503C62.5735 38.0941 63.356 38.7512 63.9636 39.6216V37.0615H65.9245ZM58.6058 49.0429C59.6184 49.0429 60.5298 48.8295 61.3399 48.4029C62.1685 47.9591 62.8129 47.3361 63.2732 46.534C63.7519 45.7318 63.9913 44.8187 63.9913 43.7946C63.9913 42.7706 63.7519 41.8575 63.2732 41.0553C62.8129 40.2531 62.1685 39.6387 61.3399 39.212C60.5298 38.7683 59.6184 38.5464 58.6058 38.5464C57.5747 38.5464 56.6449 38.7683 55.8163 39.212C55.0062 39.6387 54.3618 40.2531 53.8831 41.0553C53.4228 41.8575 53.1926 42.7706 53.1926 43.7946C53.1926 44.8187 53.4228 45.7318 53.8831 46.534C54.3618 47.3361 55.0062 47.9591 55.8163 48.4029C56.6449 48.8295 57.5747 49.0429 58.6058 49.0429Z" fill="#222222"/>
</svg>
